<?xml version="1.0" encoding="utf-8"?>
<!-- Generator: Adobe Illustrator 23.0.5, SVG Export Plug-In . SVG Version: 6.00 Build 0)  -->
<svg version="1.1" id="Layer" xmlns="http://www.w3.org/2000/svg" xmlns:xlink="http://www.w3.org/1999/xlink" x="0px" y="0px"
	 viewBox="0 0 512 512" style="enable-background:new 0 0 512 512;" xml:space="preserve">
<style type="text/css">
	.st0{fill:#4E4C4E;}
</style>
<path class="st0" d="M368,5v94c0,2.8,2.2,5,5,5h94c4.5,0,6.7-5.4,3.5-8.5l-94-94C373.4-1.7,368,0.6,368,5z"/>
<path class="st0" d="M344,152c-13.3,0-24-10.7-24-24V0H94C64.2,0,40,24.2,40,54v404c0,29.8,24.2,54,54,54h324c29.8,0,54-24.2,54-54
	V152H344z M320,280h-40v40c0,13.3-10.7,24-24,24s-24-10.7-24-24v-40h-40c-13.3,0-24-10.7-24-24s10.7-24,24-24h40v-40
	c0-13.3,10.7-24,24-24s24,10.7,24,24v40h40c13.3,0,24,10.7,24,24S333.3,280,320,280z"/>
</svg>
