<?xml version="1.0" encoding="utf-8"?>
<!-- Generator: Adobe Illustrator 23.0.5, SVG Export Plug-In . SVG Version: 6.00 Build 0)  -->
<svg version="1.1" id="Capa_1" xmlns="http://www.w3.org/2000/svg" xmlns:xlink="http://www.w3.org/1999/xlink" x="0px" y="0px"
	 viewBox="0 0 426.7 426.7" style="enable-background:new 0 0 426.7 426.7;" xml:space="preserve">
<style type="text/css">
	.st0{fill:#FFFFFF;}
</style>
<g>
	<g>
		<path class="st0" d="M362.7,42.7h-89.3C264.6,17.9,241.2,0,213.3,0S162,17.9,153.3,42.7H64c-23.6,0-42.7,19.1-42.7,42.7V384
			c0,23.6,19.1,42.7,42.7,42.7h298.7c23.6,0,42.7-19.1,42.7-42.7V85.3C405.3,61.8,386.2,42.7,362.7,42.7z M213.3,42.7
			c11.7,0,21.3,9.5,21.3,21.3s-9.6,21.3-21.3,21.3S192,75.8,192,64S201.6,42.7,213.3,42.7z M170.7,341.3L85.3,256l30.2-30.2
			l55.1,55.1l140.5-140.5l30.2,30.2L170.7,341.3z"/>
	</g>
</g>
</svg>
